/* XPM */
static char *result[] = {
/* columns rows colors chars-per-pixel */
"64 64 158 2 ",
"   c black",
".  c #010101",
"X  c #020202",
"o  c gray1",
"O  c #040404",
"+  c gray2",
"@  c #060606",
"#  c #070707",
"$  c gray3",
"%  c #090909",
"&  c gray4",
"*  c #0B0B0B",
"=  c #0C0C0C",
"-  c #0E0E0E",
";  c #101010",
":  c #131313",
">  c gray8",
",  c #151515",
"<  c #161616",
"1  c gray9",
"2  c #191919",
"3  c #1D1D1D",
"4  c #1E1E1E",
"5  c #202020",
"6  c gray13",
"7  c #222222",
"8  c #232323",
"9  c gray14",
"0  c #272727",
"q  c #282828",
"w  c gray16",
"e  c #2A2A2A",
"r  c #2C2C2C",
"t  c gray18",
"y  c #313131",
"u  c #353535",
"i  c gray21",
"p  c gray22",
"a  c #393939",
"s  c #3A3A3A",
"d  c gray23",
"f  c gray24",
"g  c #3E3E3E",
"h  c #414141",
"j  c gray26",
"k  c #434343",
"l  c gray27",
"z  c gray28",
"x  c #484848",
"c  c #4B4B4B",
"v  c #4C4C4C",
"b  c gray30",
"n  c #4E4E4E",
"m  c gray31",
"M  c gray33",
"N  c #555555",
"B  c #565656",
"V  c gray34",
"C  c #585858",
"Z  c gray35",
"A  c #5A5A5A",
"S  c #5D5D5D",
"D  c gray37",
"F  c #606060",
"G  c gray38",
"H  c #646464",
"J  c #656565",
"K  c #676767",
"L  c #686868",
"P  c DimGray",
"I  c gray42",
"U  c #6D6D6D",
"Y  c #6F6F6F",
"T  c gray44",
"R  c #717171",
"E  c #747474",
"W  c gray47",
"Q  c #7C7C7C",
"!  c #7E7E7E",
"~  c gray50",
"^  c #818181",
"/  c #838383",
"(  c gray53",
")  c #898989",
"_  c gray55",
"`  c #8D8D8D",
"'  c gray56",
"]  c gray57",
"[  c #929292",
"{  c #939393",
"}  c gray58",
"|  c gray59",
" . c #989898",
".. c gray60",
"X. c #9A9A9A",
"o. c #9B9B9B",
"O. c gray61",
"+. c #9D9D9D",
"@. c gray62",
"#. c #9F9F9F",
"$. c gray64",
"%. c #A4A4A4",
"&. c #A5A5A5",
"*. c #A7A7A7",
"=. c gray66",
"-. c #A9A9A9",
";. c gray67",
":. c gray68",
">. c #B1B1B1",
",. c gray72",
"<. c #BCBCBC",
"1. c gray74",
"2. c gray",
"3. c gray75",
"4. c #C1C1C1",
"5. c gray76",
"6. c #C3C3C3",
"7. c gray78",
"8. c gray79",
"9. c #CACACA",
"0. c gray80",
"q. c #CDCDCD",
"w. c gray81",
"e. c #D0D0D0",
"r. c gray82",
"t. c #D2D2D2",
"y. c LightGray",
"u. c gray83",
"i. c #D5D5D5",
"p. c #D7D7D7",
"a. c #D8D8D8",
"s. c #DADADA",
"d. c #DDDDDD",
"f. c gray87",
"g. c gray88",
"h. c #E1E1E1",
"j. c #E4E4E4",
"k. c #E7E7E7",
"l. c #E9E9E9",
"z. c gray92",
"x. c #ECECEC",
"c. c #EEEEEE",
"v. c #EFEFEF",
"b. c gray94",
"n. c #F1F1F1",
"m. c gray95",
"M. c #F3F3F3",
"N. c gray96",
"B. c #F6F6F6",
"V. c gray97",
"C. c #F8F8F8",
"Z. c #F9F9F9",
"A. c gray98",
"S. c #FBFBFB",
"D. c gray99",
"F. c #FDFDFD",
"G. c #FEFEFE",
"H. c white",
/* pixels */
"                                                                                                                                ",
"                                                                                                                                ",
"                                                                                                                                ",
"                                                                                                                                ",
"                                                                                                                                ",
"                                                                                                                                ",
"                                                                                                                                ",
"                                                                                                                                ",
"                                                                                                                                ",
"                                                                                                                                ",
"                                                                                                                                ",
"                                                                                                                                ",
"                                                                                                                                ",
"                                                                                                                                ",
"                                                                                                                                ",
"                                                                                                                                ",
"                                                        .             .                                                         ",
"                                                                    .                                                           ",
"                                  X o                 o :         .   < =                 X X                                   ",
"                              o       o #             X ` 2   O o .   $.q   .         X @       o .                             ",
"                          o       u / %.<   .           9.#.        V A.6   .           (  .l %     X .                         ",
"                      X     @ M 5.Z.H.L   o             2.H.A i g f f.Z.7   .       X   f H.H.u.T ,     o                       ",
"                    o     F 0.H.H.H.t.&                 3.H.G.G.H.H.H.M.0   .         X   o.H.H.H.g.~ -   . .                   ",
"                . .   t ,.H.H.D.C.H._   o             . 7.H.D.H.H.G.H.V.t   X         o   l H.D.S.H.H.s.m     X                 ",
"              .     P B.H.D.D.G.G.H.c   o             + s.H.D.G.G.F.H.G.g   X         .   5 k.H.F.F.S.H.H.| X   X               ",
"            .     ] H.H.S.G.H.G.H.H.d   o         X   8 V.H.G.H.H.G.F.H.F   o         .   < h.H.F.G.H.D.G.H.<.>   X             ",
"                ..H.D.F.H.G.G.G.S.H.)   o o X X o +   ^ H.S.G.G.H.G.D.H.;.  . o X X o +   z H.H.G.G.G.H.G.A.H.6.*   .           ",
"          o   R H.D.G.H.G.G.H.H.G.H.Z.B             d n.H.F.H.H.H.H.G.G.H.U             y h.H.F.H.H.G.G.H.G.A.H.:.              ",
"        X   u A.H.F.H.G.G.H.H.G.H.F.H.H.&.D k j N ] m.H.F.H.G.H.H.G.H.F.H.H.*.F l h M ` v.H.F.H.G.H.H.G.G.H.G.D.H.S   o         ",
"        .   -.H.S.H.G.G.H.H.H.G.G.H.F.H.H.H.H.H.H.H.H.F.H.G.G.H.H.G.G.H.F.G.H.H.H.H.H.H.H.D.H.G.G.H.H.H.G.G.H.D.H.f.-   .       ",
"      .   3 v.H.G.G.G.H.H.H.H.H.G.G.H.G.D.F.G.H.F.D.F.H.G.G.H.H.H.H.G.G.H.G.D.F.G.H.F.D.F.H.G.G.H.H.H.H.H.G.G.G.D.H.F   o       ",
"      o   J H.D.G.G.H.H.H.H.H.H.H.G.G.H.G.G.G.G.G.G.H.G.G.H.H.H.H.H.H.G.G.H.G.G.G.G.G.G.H.G.G.G.H.H.H.H.H.H.G.G.D.H.@.  .       ",
"      o   ] H.A.G.H.H.H.H.H.H.H.H.H.H.H.H.H.H.H.H.H.H.H.H.H.H.H.H.H.H.H.H.H.H.H.H.H.H.H.H.H.H.H.H.H.H.H.H.H.G.G.D.H.3..         ",
"      X   +.H.S.G.G.H.H.H.H.H.H.H.H.H.H.H.H.H.H.H.H.H.H.H.H.H.H.H.H.H.H.H.H.H.H.H.H.H.H.H.H.H.H.H.H.H.H.H.H.H.G.D.H.8.@         ",
"      o   ' H.A.G.H.H.H.H.H.H.H.H.H.H.H.H.H.H.H.H.H.H.H.H.H.H.H.H.H.H.H.H.H.H.H.H.H.H.H.H.H.H.H.H.H.H.H.H.H.G.G.D.H.1.          ",
"      o   D H.D.G.G.H.G.G.G.H.G.F.D.F.G.H.G.H.G.F.D.F.G.H.G.G.G.H.G.G.H.G.G.F.F.G.H.G.H.G.F.F.F.G.G.H.G.G.H.G.G.D.H.X.  .       ",
"      .   1 l.H.F.G.G.G.G.H.F.G.H.H.H.G.D.H.F.G.H.H.H.D.F.H.G.G.G.G.H.G.D.H.H.H.H.F.H.F.F.H.H.H.H.D.H.G.G.G.G.G.D.H.V   X       ",
"        .   +.H.S.H.G.G.H.F.H.H.f.r.h.H.H.S.H.H.s.r.z.H.H.D.H.G.G.H.F.H.H.N.i.y.C.H.S.H.H.l.t.a.A.H.F.H.G.G.H.D.H.t.@           ",
"        .   9 b.H.D.H.H.F.H.f.n : $ 1 v q.H.N.D = % 7 Y c.H.D.H.H.D.H.H.' r = % s p.H.x.K 4 & - u 3.H.D.H.H.G.G.H.c   o         ",
"          o   Z H.H.F.G.H.C.p           & 4.(           e e.H.D.F.H.v.b           n j.r           & w.H.D.G.S.H.[   .           ",
"            X   Q H.G.Z.H.>.  o .   . O   ; 2   X   . +   2 d.H.G.S.x   O X   .   & w   O .     @   I H.S.S.H.=.                ",
"                  T H.H.H.}   o         X               O   z H.H.!   O               X         X   C H.H.H.O.+   .             ",
"                .   b g.H.2.              . .             X   :.n.:   .             .           o   E H.B.W     .               ",
"                  X   < #.Z.a   X                         o   G {   o                             $ i.0.y     .                 ",
"                    o     x M                             .   w a   X                         .   f H     X                     ",
"                      . .     .                               @ %                                 .     X                       ",
"                          X                                                                         X                           ",
"                                                                                                                                ",
"                                                                                                                                ",
"                                                                                                                                ",
"                                                                                                                                ",
"                                                                                                                                ",
"                                                                                                                                ",
"                                                                                                                                ",
"                                                                                                                                ",
"                                                                                                                                ",
"                                                                                                                                ",
"                                                                                                                                ",
"                                                                                                                                ",
"                                                                                                                                ",
"                                                                                                                                ",
"                                                                                                                                ",
"                                                                                                                                ",
"                                                                                                                                "
};
