/* XPM */
static char *result[] = {
/* columns rows colors chars-per-pixel */
"64 64 256 2 ",
"   c #0B0A04",
".  c #0A0806",
"X  c #060A0B",
"o  c #0C0C0B",
"O  c #130503",
"+  c #1A0705",
"@  c #140C03",
"#  c #1B0C04",
"$  c #120D0C",
"%  c #0A1605",
"&  c #0D110E",
"*  c #1C1303",
"=  c #191707",
"-  c #12130D",
";  c #0B0611",
":  c #0C0E12",
">  c #130E11",
",  c #1A0F10",
"<  c #0C1212",
"1  c #131412",
"2  c #191414",
"3  c #151914",
"4  c #1B1B15",
"5  c #161919",
"6  c #1B1C1A",
"7  c #260906",
"8  c #370907",
"9  c #241404",
"0  c #281907",
"q  c #2C1C04",
"w  c #24130B",
"e  c #341806",
"r  c #261813",
"t  c #221D1C",
"y  c #391814",
"u  c #182406",
"i  c #1E211B",
"p  c #2A2509",
"a  c #382707",
"s  c #293304",
"d  c #393508",
"f  c #23231C",
"g  c #292619",
"h  c #352A17",
"j  c #383418",
"k  c #1D1E20",
"l  c #1E2121",
"z  c #232423",
"x  c #272926",
"c  c #2C2C2C",
"v  c #352B25",
"b  c #2E302E",
"n  c #383428",
"m  c #383735",
"M  c #460908",
"N  c #560C0C",
"B  c #461809",
"V  c #471413",
"C  c #551213",
"Z  c #71110D",
"A  c #661617",
"S  c #771617",
"D  c #452807",
"F  c #483609",
"G  c #553B0A",
"H  c #453816",
"J  c #543917",
"K  c #69251D",
"L  c #433826",
"P  c #46312E",
"I  c #3E440A",
"U  c #3E4814",
"Y  c #49440A",
"T  c #5A480B",
"R  c #5A540B",
"E  c #484417",
"W  c #574917",
"Q  c #535213",
"!  c #664B09",
"~  c #67560A",
"^  c #75580C",
"/  c #694C13",
"(  c #675817",
")  c #735618",
"_  c #59620E",
"`  c #69660A",
"'  c #7A690B",
"]  c #7C750B",
"[  c #6C621B",
"{  c #7A6718",
"}  c #484426",
"|  c #544B26",
" . c #5A5429",
".. c #45433A",
"X. c #584E35",
"o. c #63542D",
"O. c #665B29",
"+. c #6B6229",
"@. c #746825",
"#. c #787130",
"$. c #484845",
"%. c #535049",
"&. c #595856",
"*. c #615C4E",
"=. c #58605A",
"-. c #767053",
";. c #696A67",
":. c #74746C",
">. c #787774",
",. c #8E100E",
"<. c #99120D",
"1. c #980F12",
"2. c #881617",
"3. c #961715",
"4. c #9C1314",
"5. c #A50D0A",
"6. c #A30D0C",
"7. c #A5120E",
"8. c #A40E12",
"9. c #A31314",
"0. c #8B2222",
"q. c #85680A",
"w. c #89770B",
"e. c #987A0B",
"r. c #976E16",
"t. c #8F7115",
"y. c #8A7917",
"u. c #88662A",
"i. c #857725",
"p. c #897B35",
"a. c #877D4D",
"s. c #817F6B",
"d. c #7B8228",
"f. c #8B890B",
"g. c #988509",
"h. c #8E8C13",
"j. c #978617",
"k. c #989218",
"l. c #A68C0B",
"z. c #A8970A",
"x. c #B69A09",
"c. c #A68815",
"v. c #B18D16",
"b. c #A89818",
"n. c #B49918",
"m. c #A7A40A",
"M. c #B8A60C",
"N. c #B5AD12",
"B. c #B8A618",
"V. c #8F8C2C",
"C. c #988827",
"Z. c #998A35",
"A. c #9B943B",
"S. c #A38928",
"D. c #A69A27",
"F. c #AD902D",
"G. c #B69B29",
"H. c #A79A38",
"J. c #B9A828",
"K. c #BAB227",
"L. c #B2AB32",
"P. c #B8A936",
"I. c #C2A70B",
"U. c #CAB60A",
"Y. c #D7BA07",
"T. c #C6AB18",
"R. c #D3AA19",
"E. c #C9B717",
"W. c #D6BA16",
"Q. c #C5AA26",
"!. c #C9B629",
"~. c #D9BB28",
"^. c #CBAA36",
"/. c #C8B737",
"(. c #D7B937",
"). c #BDC02A",
"_. c #DAC80A",
"`. c #DCD50B",
"'. c #C7C311",
"]. c #DAC618",
"[. c #D9D618",
"{. c #E5CB0B",
"}. c #F7CF0F",
"|. c #EAD809",
" X c #EDDC0C",
".X c #F4DC05",
"XX c #FBDC05",
"oX c #F4D50B",
"OX c #F9D508",
"+X c #F4DC0B",
"@X c #FADC0B",
"#X c #E6C818",
"$X c #E4CD1C",
"%X c #EBD513",
"&X c #E4D815",
"*X c #EDDC13",
"=X c #E5D31B",
"-X c #ECD31B",
";X c #ECDB1B",
":X c #F3D514",
">X c #FBD614",
",X c #F4DC14",
"<X c #FADC13",
"1X c #F2D41B",
"2X c #F3DC1B",
"3X c #FADB1B",
"4X c #DCE010",
"5X c #EDE20A",
"6X c #E8E509",
"7X c #F4E204",
"8X c #FBE304",
"9X c #F4E20B",
"0X c #FAE20B",
"qX c #F6EA08",
"wX c #EBE317",
"eX c #F3E213",
"rX c #FAE213",
"tX c #F4E21B",
"yX c #FAE31A",
"uX c #CAC42A",
"iX c #D8C628",
"pX c #DDD529",
"aX c #CAC335",
"sX c #D8C836",
"dX c #DDD637",
"fX c #E7CA26",
"gX c #F2CD2B",
"hX c #E4D323",
"jX c #ECD423",
"kX c #ECDB23",
"lX c #E5D628",
"zX c #EBD42B",
"xX c #ECDC2B",
"cX c #F3D623",
"vX c #F3DB23",
"bX c #F3DB2A",
"nX c #F8D828",
"mX c #E6CB36",
"MX c #E7D835",
"NX c #F5DB35",
"BX c #ECE226",
"VX c #F4E323",
"CX c #F7E32C",
"ZX c #F0E136",
"AX c #968E48",
"SX c #A69844",
"DX c #AB974D",
"FX c #B3AC4A",
"GX c #B8A848",
"HX c #8B8B72",
"JX c #C8B547",
"KX c #D4B843",
"LX c #D5C546",
"PX c #E7CD44",
"IX c #E9D645",
"UX c #9B9A89",
/* pixels */
"u _ y.e.#X}.}.gXl.f.` s   p ` g.l.[.5X7X{.g.g.~ ,   d ] e.z. X.XXXY.e.y.Q % % I q.e.T.gX>X<XU.f.] F + 7 J e.l.Y..X|.6Xz.g.] a O ",
"f.).iX~.1X}.OX>XW.~.aXV.d y.aXiXW.BX9XqX.X'.iXLX@.D k.uXiX_.|.OXOXoXE.dXFX_ I D.mX~.fX>X<X,X_.].pXP.F G KXmXT.#X.X7X7X].'.sXSXD ",
"pXkXnX3XoX>X>X+X@X,XVXhXE.iXjX*XeX5XrX@XXXtX*XbXmXQ.[.eX2X2X.X7XXXoX<X,X*XU.'.BX2XVXvX1X3X;XtX2X2X;XY.E.vXvXVXzX3X0X+X,XbXbXzXB.",
"<XnXcXW.].].].'.U.{.tX,X+X3XrX-XU.W.fX#XY.W.}.>X:XyXeX+X-XT.].W.{.U.W.:X0X.X7X XnX#XI.$XiXfXE.].1X@XXX@XrX*XW.T.iXiX].U.fX3XrX0X",
"oXnXG.T A.f.f.FXT e.jX:XoX<X1Xg./ H.{ Z.DX/ n.nX>X@X<XhXe./ FX{ D.j./ Q.3XOXOX>X~.q.' GX[ SX{ ~ ].0X.X.X5X'.R C.SXO.GX^ q.fX@XXX",
"rXW.T 9 d s u d * D T.<XoXrXE.D 9 G p 0 J 8 G ].yXOX,Xx.B 9 E 0 s a 8 ) fXOXOX1Xe.q p d 0 F a q e.}. XqX`.` p a h 0 F q a l.+X8X",
"0XU.! F u % % % a T x.|.@X;Xx.G F 0 . O e F ~ I. XXX2Xe.G a w . % p G ! {.8XOX#Xq.J p % % * p G q.#XeX9X[.` Y p @ # 0 a G g.&X7X",
"8X{.B.P.AXs 0 AXGXQ.Y.9X9X%XiXJ.P.Z.q a Z.K.m.`.7X.X,XU.J.GX#.p I SXP.I.oXXX@XnX!.P.L.R p ( P.K.I.;XtX*XhXN.K.H.T q @.GXL.T.eX5X",
"@X,X&XvXlXz.g.LXNXgX,X,X+X*XBX&XvXfXg.g.lXBX`.6X+X@XOX>XcXNXsXf.m.MXlX*X0X+XeX1XkX=XBXN.w.!.NX&X,X*X1XnX%X&X;XNXn.e.iXxXzXbXeX9X",
"bX#X-X3X+XeX2XcXgXzX$X-XkXlXpXhX:X<XcX;XwX6X4X`.hXbX#X}.1X3X%X2X*X2XxX$X].kX=XfX=X*X9X7X%XnX>XvXhXhXlXgXgXgX3X>X,X X,X,XMXiX&X`.",
"sXn.r.mX:XXX@X>XmXv.g.aXk.K.h.c.$X@X<XeXwX4Xf.D.JXC.KXp.J.IXIXZXNXIXLXZ.P.K.k.GXt.T.2XrX<XnX1XT.y.P.D.J.^.r.W.nX<X.X.X2XB.t.aXk.",
"w.~ a e.*XXX.XyXn.D G { E @.Y a x.,X,XeXpXh.s +.-.X.a.X.X.AXFXJXFXDX-.%.-.#.+.Z.h T iXVX*X3XmXT a #.G / q.B q.gX@X+XeXE.F a #.d ",
"* 9 q T ].0X+X=X^ e 9 # = * * p ` $X,XeXsXO.L n n c n n m *.HXUXUXHX&.$.m m m P L J B.lX;XkXB.a 9 0 O # p 9 G Q.nXVXbXh.p p 0 O ",
"p ) j.g.[.5X.X&Xb.j.@.F @ d [ h.l.kX+X2XMXA.#.X.v v P $.%.&.;.>.UX>.;.=.%.$.m P +.p.K.xXtXkXM.j.V.T # * ~ j.r.~.CX;XkXx.j.w.G + ",
"f.sXlX]. X7X5XeX%X].MXD.G S.MX].{.eX2XzXJXi. .} m m $.$.%.&.%.&.&.&.&.&.&.$.$.$.%.+.Z.sXkXyX;X_.pXLX( ~ iXkX].;X,X9X X|._.lXP.G ",
"*X2XvXkX XeX X X;XkXvXjXW.jX;XeX,X[.PXSX+.} n b b m m m m m $.$.$.$.$.$.$.$.$....... .#.K.dXBXeXwXkX].#X0X X2XvX1X X X+XeX3XjX~.",
",XcXmXJ.U.'.U.].z.pXvX,X<X@X@X#XJ.P.p.} b x x c c c b b b m m m m m ..m m m m m b m m }  .A.L.!.;X X+XXX8XoXT.Q.(.T.iXm.iX2XoX<X",
"eXxXS.J C.f.` A.G ' mXtX.X<XgXt.o.*.h f z z f z x x x c x c c c m b b b b b b c b b x b c X. .o.!.,X.X8X@Xx.G u.Z.( SXR ^ W.<X8X",
"qXE.F 7 p p = a # a B.kX*XCX^.| g t 6 6 6 6 i l 6 k k k k k k z z z z x x x x x x l x x l x z n i.mXvXtX=X~ 7 0 r @ a * q c.vX+X",
"qXU.^ T p   O r W ! M.wXwXlXP.| g 2 4 6 6 5 6 5 5 6 6 6 6 6 6 6 6 6 6 t 6 k i z z l l x l l f L u.PXxX;XiX' R d # O 9 F ! c.;X9X",
"|.|.U.iXJXH h SXJXE.`.9XwXBXL.Q g 4 3 2 2 2 2 2 2 2 3 3 3 3 3 3 5 5 3 5 6 6 6 r 6 i 4 t k z x j @.sXCX;XkX'.uX).~ a j.(.!.W.0X.X",
"8X|.9X,XxXB.n.mXNX*X.X|.tXiX#.j u - 3 1 2 > > 2 1 - - - - 1 1 1 1 1 3 2 2 2 2 2 5 4 4 t 6 t f g | D.MXbX[.4X6XBX!.v.iXNXnX:XeXqX",
"9X_.hXcXvXnX3X3XeX{.Y.=XpXH.E p 3 - 1 1 1 1 > < - < & & > > > > > 2 1 1 2 , 1 3 3 5 6 6 t 6 6 f j +.P.IXdXpX|.7X2X1X<X3XfXsXhXpX",
"iXl.q.(.CXoXXXrX$Xg.w.L.p.+.r 2 , 1 1 1 o o $ $ 1 o < : > > , , > > 1 > 1 1 1 1 < 3 3 2 4 5 6 6 6 n +.SXSX[ N.qX.XXXXX}.c.t.GX] ",
"R T e q.cXOX.X,Xl.a d +.L g 2 > 2 $ > < $ + 7 , , ; : : $ $ $ , $ $ $ < < < , w r , w 2 5 5 6 6 6 z v X.O.9 ! fX@XXX@XI.D q  .p ",
"* p B G fX@X8X*X' s s n t 1 > > $ > o @ 7 8 C A C 7 o : @ + 7 7 7 w , - < $ 7 C K A V w 3 5 5 6 6 6 t v L a G T.<X.X:Xl.D 0 % % ",
"d f.G.v.#X<X@X|.m.m.V.+.f 1 < < < $ + 8 N S 2.2.S M 8 7 + 7 B N N B 7 7 7 8 C S 0.2.K C r 2 2 6 5 k l v p.n.z.Y.:XrX%XM.b.k._ = ",
"z.xXzXmXbX:X+X<X4X[.dXA.g 3 < < & # 8 C 2.3.3.1.2.2.Z A N N S 2.2.A N N A S 0.3.3.3.3.0.A V w 2 5 k f | JXxX$XvXnX:X3XkX[.MX).` ",
"eXtXjXcXfXjX1XkXkXxXmXH.H 4 & % # 8 A 2.1.<.5.8.8.1.<.,.2.,.1.8.3.3.3.3.4.9.4.9.9.3.9.0.0.K V , 6 6 g +./.vXvXfXxXxXjX&XBXVX&X_.",
"XX+XhXx.B.E.M./.j.~.IXS.j -   # 8 A 2.1.1.6.8.5.8.5.6.5.6.7.8.8.8.8.8.7.8.8.9.8.9.9.9.9.9.2.S y r 6 f | P.lXn.G./.J.aXk.!.xX|.8X",
"@XcXw.D #.] R AXV ^ (.p.j g 4 8 A 2.3.1.<.1.1.8.5.6.6.5.5.5.6.8.9.8.6.5.5.7.7.9.9.3.3.3.4.3.0.K e 4 i E SXb.a #.#.E A.E F (.nXXX",
"<XW.F 7 u % % r w D G.Z.o.&.v V S S Z Z Z 2.1.1.8.1.,.6.<.1.1.,.1.1.<.<.<.3.3.4.9.3.2.S S S 0.K y = i | H.( 9 9 - % u 9 q c.1XXX",
">XW.q.` I %   d { q.G.AX-.*.m C C M 7 7 8 A 2.,.,.Z Z ,.2.,.,.2.,.,.,.2.2.Z S ,.2.2.A M 7 y C P P t t | D.j.] Y = @ s ( ] l.&XXX",
">X1XW.dX)._ I L.PXW.(.A.:.&.P V 8 + O o O 8 N M 8 8 8 M N C Z S S S S N M 8 8 M N C y , > , w y y y r W D.].iXKX[ F D.dX]._.|.8X",
"oX:XeX2X[.'.U.jX-X>XmXSXs.;.m 7 + o ; o . O @ O . . O O 7 8 A S 2.A M 7 @ o   @ + , , 1 > 2 , , t 4 h O.Q.2X:XNX~.T.[.tX2XtX.X7X",
"=XY._.:X@X8XXXOXcX#XQ.SX-.;.m . O o O ; X X X X X . ; o O 7 M S S V + + o < < < < > > 2 > 5 2 5 4 i h @.G.W.cXcX>XrX3X2X#XT.$XU.",
"K.f./ ^.nXOXOX>X~.q.i.AX;.:.$.< . . . . . X X X X ; ; X   @ 8 A A 8 @ $ : > : : : < 1 - 1 1 3 3 3 6 g o.DX/ v.NX>X@X<XfXw./ FX{ ",
"E d 7 ^ fXOXOX1Xe.e j %.%.>.%.< . . O . . . . X X ; ; ;   O 7 y y 7 @ . : ; : < < & - - - 1 3 < 1 i f v | 7 G ~.rXXX<XI.B q E = ",
"% i G ! _.XX@X#Xq.G h n ..;.;.l X $     . . . X . ; . ; . o O w 7 O o   o : : : & - - & - - 2 1 5 6 6 g j H ! U.@XXX1Xe.G h = . ",
"Y SX^.I.|.XX@X;XB.K.FX+.} ;.>.b o . o . X . . . . . o . o o o o - o o o o : < : & & 1 1 2 2 5 5 i v g L H.K.m.{.7X+X1XU.Q.GX#.0 ",
"N.BXzX=X2X+X3X,X&X&XBX!.p.a.s.&.6 . o o . o o o   X o : o : o X o X & o o & & & & < < 1 > 5 5 6 x | @.C.pXwX`.wXqX+X@X,X-XCXsXw.",
"7X9XbXiX].bXhXlX=XtXeX%XmXDXHXUXm o o o X X o . X o % o o o : : X < X & & - - & - 1 1 3 5 5 5 k j y./.hX6X6X[.`.kXkXgX#X2X,X:X&X",
"7XyXsXy.J.J.k./.e.Q.cX,XcXKXSXUX:.k ; o o   . o o % o o o o o ; o : < & % - - < < 1 1 3 2 5 6 x  .J.xX;X6X4Xh.D.JXj.KXr.x.cX+X8X",
"7X&X' e @.R Y #.p G iXCX%XzXFX-.UX&.o o o o o o o o % % o o $ o : $ $ - - & - < 1 : 1 2 2 4 i f [ ~.BXVX4Xh.a W O.h u.D D T.rX8X",
"9XU.F 9 9 @ @ 0 9 a x.;X2XzXH.X.;.UXm X o o : ; o < & X o $ o o & & - $ 1 < 1 5 1 1 1 3 3 5 f g [ iXtX5XiXR 0 9 * @ p * a g.-X5X",
"0X].e.i.~ 0 # T y.l.U.|.*XvXB.V.-.HX;.l % : $ o o : & & 1 $ < & & < o 1 1 1 < 1 1 5 3 5 5 z E #.k.xX,X X$Xg.j.{ a = Y y.j.v.2X|.",
"7X X_.NXsX^ / /.mX#X%X8X7XqX;XuXFXHX:.$.4 & 1 o o & & & : - & - < 1 - 1 3 3 1 1 5 3 6 f z | SX!._.eX@X:X>X{.#XdXw.T D.dXiX$X,X@X",
"|.,X:X>XnX#XfXNXNXbX1X*X5X*XBXBXMXLXAXAXX.g 4 1 & 1 1 1 & 1 1 1 1 3 1 1 1 1 3 3 3 t j } @.L.pX,X9X XvX2X1X+X0XeXiXiXlXkXCXkX%XeX",
"&XI.I.%X<X<X>XnXNX~.x.].E.uXN.uXxX-XsXL.Z.+.j r 4 - 1 1 3 - 1 - 1 1 3 3 3 3 5 i g L O.C.!.#X<X-XM.!./.!.Q.M.&X5X9XrX3XnX~.n.iXK.",
"N.w.G n.1X@X0X3X~.! ' H.W SX( E E.2X,X=X!.V.L L j 4 4 3 3 - 3 3 3 3 3 3 4 i f n v E H.iXoX<X-Xq.J SX{ @.SXH g.kX+XXX,X].^ T H.~ ",
"q 9 9 ! iXeX5XzXt.e # r # p w q q.jXtXvXiX( y h f 2 4 - - g g g g g 6 6 4 f f g f H D.kX|.2XQ.a @ a 7 * q 9 F ^.eX.XkXb.a # s - ",
"# D W ^ hX,X5XhXq./ F * O # d ~ w.fXkXkXiX] R j r r g j j Q [ ( [ ( E j h 6 6 j W / x.2XeX-XM.~ T p O + a ! ^ T.eXeXjXj.! F = O ",
"/ GXKXE.&X0X7X XU.uXaX] a q.JX(.E.:X,X;XwX'.uXK.~ a p.JXG.n.K.B.N.N.b.L.SXW j AXJXE.{.@X,X*X`.'.uXD.a G J.~.~.>X0X7X*X].U.aXC.a ",
"W.ZXxXvXeXqX7X.XeX*XtX].z.fXIX-X<XOXVXvX;X4X6XBX!.c.sXNXzXjX%X,X.X|.;XkXMXB.B.PXNX2X.X.XyXwXwX[.wXBXz.n.NXnXgXgX.XqXeXwX;XCXfXz.",
"tX2XbXW._.|.|.[.].MXnXVX:X.X0X@X].#XiXmXdXpX|.7XyX:X<X>XfX~.zX=X&X_.hXjX;XVX,X1X3X{.Y.&XhXfXW.zXwX5X1X-X<X3XmX(.zX-X[.W.;X3XvX:X",
"+XeX!.{ b.m.h.^.q.v.gX3X+X.X+XM.q.^.e.S.P.( T.0X@XXXXXoXc.q.GXy.B.l.q.~.CX X.X@X=Xe.w.J.y.P.e.w.[.9X+X@XyX~.q.p.P.y.P.q.g.gX<XOX",
"8X_./ 0 W Y d O.8 V ^.3XoXtXiXF 0  .D F ( w ! ~.@XXXXXI.D a  .p Y T q q.gX7X7X,Xl.a F O.a W F e l.&X+X<XcXq.e } W p ( a a n.3XOX",
"0XU.F g 0   . 0 e F n.1X@XBXb.d 0 p O O e a G W.<X0X,Xg.F r =   * r y / ~..XqX*X` d u * # 7 e D ^ xXeX X$X~ a = * . * p a e.:XoX",
"7X_.z.D.#.s * { F.c.Y.1XtXBXN.m.k.i.9 q y.G.l.Y.<X<X%XI.n.C._ * d h.F.v.fX<X.X|.m.m.h.R q G C.n.x.%X9X X&Xz.m.f.d = R V.D.I.+X@X",
"8XeX=XhXaXf.w.uXNXhXoX.X2XwX4X`.MXaXw.w.fXjX#X2X3X%X2X;X].ZXuX` g.BXdXfXCX2X+X+X&X[.MXK.^ n.IXzX:X+X XeXwX`.`.BXk.` /.IXsXgXoX8X",
",X#X%X1XeX X|.2X;XBX{.%XBX;X&X*X;X%X&X*X+X,XbX#XvXxXxX=XVXVX&X`.|.tXzXzXhXtXVXkXNXnX>X1X].,X;XcX;X%XkXkX[.;X5X9X&X].vXnXNXmX1XeX",
"dXM.x.zX9XXX.X,XkXz.b.aXb./.v.T.2X<X0X.X+X-Xn.D./.J.aXk.T.bX X0X8X:XfXv.B.N.m./.e.(.nX<X8X7X;XiXj.!.J.!.!.g._.eXeXrXXX>X^.j.LXm.",
"V.{ D j.-X>X.XtXJ.d Q V.H p./ D x.3X7X XeXg.d #.#.U V.U G /.vXOX@XcXw.d d.` Q AXD ) fX@X7X6XpX` h V.Q ( a.D w.jX@X.XXXW.T d AXU ",
"u * + G mX<XOXzX{ * % - $ w 7 7 ' jX XqX=X~ * - - % = % q r.nXOX>X~.F . u % @ w + M R.<X.X9XK.u X i * o # O D Q.3XXXOXv.9 . 3 % "
};
